<?xml version="1.0" standalone="no"?><!DOCTYPE svg PUBLIC "-//W3C//DTD SVG 1.1//EN" "http://www.w3.org/Graphics/SVG/1.1/DTD/svg11.dtd"><svg t="1681292274424" class="icon" viewBox="0 0 1024 1024" version="1.1" xmlns="http://www.w3.org/2000/svg" p-id="2834" width="32" height="32" xmlns:xlink="http://www.w3.org/1999/xlink"><path d="M956.8 334.08c-8.96 0-16 7.04-16 16L940.8 723.2c0 17.28-8.96 33.28-24.32 41.6L544 977.92c-14.72 8.32-32.64 8.32-47.36 0L123.52 764.8c-14.72-8.32-24.32-24.32-24.32-41.6l0-424.96c0-17.28 8.96-33.28 24.32-41.6l372.48-213.12c14.72-8.32 32.64-8.32 47.36 0l334.72 191.36c7.68 4.48 17.28 1.92 21.76-5.76 4.48-7.68 1.92-17.28-5.76-21.76l-334.72-191.36c-24.32-14.08-55.04-14.08-79.36 0L107.52 228.48c-24.96 14.08-40.32 40.96-40.32 69.76L67.2 723.2c0 28.8 15.36 55.04 40.32 69.76L480 1005.44c12.16 7.04 26.24 10.24 39.68 10.24 13.44 0 27.52-3.2 39.68-10.24l373.12-213.12c24.96-14.08 40.32-40.96 40.32-69.76l0-372.48C972.8 341.76 965.76 334.08 956.8 334.08z" p-id="2835"></path><path d="M736.64 446.08l0-28.8-214.4 39.68 0-157.44-69.76 0L452.48 469.12 300.8 496.64l0 28.8 151.68-27.52 0 206.72c0 16.64 14.08 30.08 30.08 30.08l254.08 0 0-26.24-197.12 0c-9.6 0-17.28-7.68-17.28-17.28L522.24 485.76 736.64 446.08z" p-id="2836"></path></svg>